<svg width="290" height="410" fill="none" xmlns="http://www.w3.org/2000/svg"><path d="M3 10a7 7 0 017-7h6C8.82 3 3 8.82 3 16v-6zm0 390v-6c0 7.18 5.82 13 13 13h-6a7 7 0 01-7-7zm277 7h-6c7.18 0 13-5.82 13-13v6a7 7 0 01-7 7zm7-397v6c0-7.18-5.82-13-13-13h6a7 7 0 017 7z" fill="url(#paint0_linear)" stroke="url(#paint1_linear)" stroke-width="6"/><defs><linearGradient id="paint0_linear" x1="290" y1="0" x2="78" y2="344.5" gradientUnits="userSpaceOnUse"><stop stop-color="#8E54E9"/><stop offset="1" stop-color="#56B4D3"/></linearGradient><linearGradient id="paint1_linear" x1="290" y1="0" x2="78" y2="344.5" gradientUnits="userSpaceOnUse"><stop stop-color="#8E54E9"/><stop offset="1" stop-color="#56B4D3"/></linearGradient></defs></svg>