<svg width="110" height="100" fill="none" xmlns="http://www.w3.org/2000/svg"><g clip-path="url(#clip0)"><path d="M109.581 45.395c-.651-1.489-2.93-1.86-7.581-1.303-1.535-4.139-4.605-7.72-7.954-10.093-.232-.186-.511-.325-.79-.511.186-.651.418-1.349.558-2 .605-2.326 1.21-5.023.93-7.86-.325-3.535-1.767-6.187-4.232-7.861-3.675-2.465-8.93-2.28-13.768-1.116-1.535-3.21-3.488-5.954-5.767-8.28C65.58.977 58.279-1.162 51.07.605c-4.605 1.116-8.512 3.349-11.35 5.349-.93.465-4.604 2.326-7.44 3.767-2.187 1.117-3.908 2.093-5.164 2.791-2.046 1.163-3.116 1.768-2.79 2.884.465 1.581 2.186 3.116 4.325 4.418-1.953 4.698-2.93 9.814-3.163 14.977C16 38.558 7.395 44.046 5.116 52.465 2.93 54.837.651 63.58 0 66.325l.233 1.023c.418.512 1.302.698 2.372.698 1.86 0 4.372-.605 6.697-1.349 1.489 1.535 3.303 2.977 5.489 4.419.186.14.418.232.604.372l-.14.279c-3.767 7.023-4.557 12.93-2.325 17.488 2.047 4.233 5.256 6.884 9.442 7.86 1.256.326 2.558.466 3.86.466 5.535 0 11.163-2.512 15.07-5.163 3.442 3.721 8.047 6.326 13.024 7.256 1.395.279 2.744.372 4.093.372 2.372 0 4.604-.419 6.604-1.256.419-.186.838-.372 1.256-.605.512 0 1.07-.093 1.767-.279 3.675-1.023 12.93-6.279 12.326-9.441-.233-1.303-1.674-2.466-3.302-3.442 1.581-4.093 2.65-8.698 3.302-13.396 5.442-2.279 10.465-5.07 14.744-8.232 1.303-.977 2.791-2.233 4.093-3.86.14.372.28.604.28.697l1.999.28c0-.047 2.279-2.978 4.372-6.187 4.047-6.093 4.187-7.907 3.721-8.93zm-26.372-29.21c2.326 0 4.465.42 6.093 1.535 1.86 1.256 2.977 3.303 3.21 6.14.232 2.419-.326 4.93-.884 7.023-.14.465-.28.93-.372 1.396-3.395-1.814-7.07-2.884-10.372-3.582a58.23 58.23 0 00-1.117-5.674 39.508 39.508 0 00-1.953-6.14c1.767-.418 3.628-.697 5.395-.697zM78.28 70c-5.488 2.233-11.395 3.954-17.488 5.07a92.658 92.658 0 012.186-1.953A208.13 208.13 0 0066.466 70c.093 0 .186.047.28.047.185.046.371.046.557.046 2.651 0 8-2.139 9.21-3.395 1.255-1.256.14-3.674-.93-5.349 1.255-1.302 2.511-2.604 3.674-3.953 0 .372-.047.697-.047 1.07-.093 2.744-.279 6.883-.93 11.534zm-4.046-10.604c-1.396-1.721-3.303-3.396-4.884-2.512l-.465.512c-3.07 6.651-3.721 9.395-3.768 10.651-1.209 1.07-2.418 2.186-3.628 3.256-1.627 1.442-3.209 2.93-4.744 4.372-4.14.604-8.372.884-12.511.884h-.047c-2.837 0-5.581-.186-8.233-.559-2.418-5.953-4.418-12.465-5.953-19.348l-.28-1.256c2.233-2.512 4.56-4.93 6.931-7.303 2.884 1.582 6.28 2.187 6.93 2.28l1.303-.791c1.767-5.675 2.511-9.489 2.279-11.396.418-.418.884-.837 1.302-1.209l2.326-2.14c1.814-1.674 3.674-3.395 5.581-5.07a92.673 92.673 0 0118.651.327c1.163.139 2.465.325 3.814.558 1.023 7.814.93 15.814.651 22.976-1.72 2-3.442 3.907-5.255 5.768zM41.72 89.162c-1.86-2.604-2.977-5.628-4.14-8.837-.232-.605-.418-1.21-.65-1.814 2.371.28 4.79.419 7.302.419h.046c3.21 0 6.419-.186 9.628-.512C50 82.092 46 85.86 41.721 89.162zm-14-52.79c5.21-1.954 10.093-3.21 12.93-3.954a103.97 103.97 0 0111.721-2.232c-1.07.976-2.14 2-3.21 2.976l-2.325 2.14c-.465.418-.884.837-1.349 1.256-1.395-.093-4.604.837-12.418 5.395l-.558 1.116c.14 1.535 1.023 2.79 2.186 3.768a214.363 214.363 0 00-5.535 5.767c-.977-5.163-1.582-10.744-1.442-16.232zm.093 21.255a131.559 131.559 0 005.442 18c-5.349-.976-10.326-2.697-14.744-5.07 2.697-4.558 5.86-8.837 9.302-12.93zm49.674-34.046c.373 1.535.698 3.116.93 4.651-1.116-.186-2.185-.325-3.209-.465a91.546 91.546 0 00-15.953-.558c3.349-2.79 6.837-5.35 10.605-7.442 1.58-.884 3.534-1.674 5.627-2.326.791 1.907 1.442 3.954 2 6.14zm3.675 7.581c3.07.698 6.325 1.721 9.302 3.396-2.046 6-5.07 11.255-8.651 16 .233-6.186.186-12.838-.651-19.396zM30.698 20.883c2.883 1.442 5.953 2.326 7.255 2.326h.093c1.21-.047 1.442-.884 1.489-1.116.14-.791.93-6.791 1.628-12.373.14-.93.232-1.72.279-2.186 3.256-2.232 6.79-3.907 10.186-4.744 6.511-1.58 12.837.28 17.767 5.21 2 2 3.721 4.418 5.117 7.255a34.142 34.142 0 00-5.814 2.465c-4.837 2.745-9.21 6.14-13.35 9.814a96.688 96.688 0 00-15.301 2.652c-3.861.976-8.093 2.186-12.186 3.674.325-4.512 1.209-8.93 2.837-12.977zM16.047 69.07c-1.675-1.07-3.117-2.186-4.326-3.302 1.21-.465 2.186-.93 2.837-1.302.558-.326 2.28-1.35 1.768-2.838-.605-1.628-5.35-8.65-8.559-9.814 2.512-6.697 10.093-11.348 17.628-14.511-.046 6 .698 12 1.814 17.488-3.953 4.558-7.628 9.349-10.65 14.605-.187-.093-.373-.186-.512-.326zm6.883 25.72c-3.488-.837-6.14-3.07-7.907-6.651-1.907-3.86-1.116-9.023 2.28-15.349a.352.352 0 00.092-.186c5.024 2.744 10.745 4.605 16.884 5.582l1.116 2.93c1.163 3.21 2.372 6.511 4.465 9.395-4.418 2.977-11.116 5.675-16.93 4.28zm52-10.837a25.978 25.978 0 00-2.14-.79c-3.162-.977-4.139-.466-4.604 0-1.163 1.162-3.21 8.604-4.326 12.93l.047.65c-2.605 1.024-5.767 1.257-9.116.652-4.419-.837-8.512-3.07-11.582-6.372 4.558-3.535 8.791-7.489 12.837-11.396A55.254 55.254 0 0157.767 78c6.977-1.024 13.814-2.838 20.14-5.303-.605 3.721-1.535 7.628-2.977 11.256zm18.837-22.419c-3.813 2.838-8.232 5.303-13.023 7.442.419-3.488.651-7.023.79-10.372.047-1.302.14-2.651.187-4.046C86.186 49.069 90 42.976 92.51 35.813c.047.047.14.093.187.14 2.883 2.046 5.535 5.07 6.93 8.512-2.326.372-4.233.837-4.326.837l-.837 1.442c.651 2.418 2.512 7.163 3.768 10.325-1.35 1.86-3.024 3.396-4.466 4.465z" fill="#fff"/></g><defs><clipPath id="clip0"><path fill="#fff" d="M0 0h109.767v100H0z"/></clipPath></defs></svg>