<svg width="203" height="65" fill="none" xmlns="http://www.w3.org/2000/svg"><g clip-path="url(#clip0)" fill="#fff"><path d="M58.084.41v4.726h-7.888v22.098h-4.783V5.137h-7.925V.409h20.596zm21.034 15.269v11.554h-4.6V16.608c0-2.747-1.389-4.404-4.055-4.404-2.3 0-4.309 1.98-4.309 5.292v9.737h-4.601V.405h4.601v9.093c.986-1.171 2.922-1.98 5.26-1.98 4.527 0 7.704 3.11 7.704 8.161zm21.875 5.738c-1.35 3.878-4.784 6.342-8.545 6.342-5.405 0-9.385-4.322-9.385-10.14 0-5.737 3.797-10.1 9.202-10.1 5.369 0 9.02 4.364 9.02 10.02 0 .647.036 1.131-.073 1.777H87.846c.475 2.303 2.301 3.758 4.602 3.758 1.46 0 2.739-.485 3.578-1.656h4.967v-.001zm-4.601-5.9c-.292-2.261-1.972-3.635-4.127-3.635-2.082 0-4.017 1.414-4.31 3.636h8.437zM63.28 63.82h-5.076l-2.374-5.939H44.765l-2.374 5.939h-4.893l10.554-26.825h4.674L63.281 63.82zM46.665 53.155h7.267l-3.615-9.13-3.652 9.13zm23.845-8.851v2.306c.768-1.292 2.231-2.306 4.566-2.306h2.118v4.877H75.04c-2.958 0-4.529 2.236-4.529 5.307v9.333h-4.6V44.304h4.6zm22.095 13.213h4.675c-1.279 4.202-4.638 6.828-8.546 6.828-5.259 0-9.24-4.323-9.24-10.14 0-5.819 3.981-10.1 9.24-10.1 3.908 0 7.267 2.626 8.546 6.828h-4.675c-.84-1.495-2.3-2.142-3.87-2.142-2.776 0-4.64 2.181-4.64 5.413s1.863 5.454 4.64 5.454c1.57 0 3.03-.645 3.87-2.14zm26.366-5.251V63.82h-4.601V53.195c0-2.747-1.388-4.404-4.054-4.404-2.301 0-4.309 1.98-4.309 5.292v9.737h-4.602V36.792h4.602v9.292c.985-1.171 2.921-1.98 5.259-1.98 4.528 0 7.705 3.112 7.705 8.162zm4.785-16.281h5.039v5.535h-5.039v-5.535zm4.821 8.319V63.82h-4.602V44.304h4.602zm11.465-3.997v3.996h5.259v4.77h-5.259v7.918c0 1.415.585 2.383 2.009 2.383h3.25v4.445h-3.286c-4.346 0-6.573-2.464-6.573-6.02v-8.726h-3.177v-4.77h3.177v-3.996h4.6zm25.893 17.695c-1.351 3.879-4.784 6.343-8.545 6.343-5.405 0-9.386-4.323-9.386-10.14 0-5.738 3.798-10.1 9.203-10.1 5.368 0 9.02 4.363 9.02 10.02 0 .646.037 1.131-.073 1.777h-13.366c.475 2.303 2.301 3.756 4.602 3.756 1.461 0 2.738-.484 3.578-1.656h4.967zm-4.601-5.898c-.292-2.262-1.972-3.636-4.127-3.636-2.082 0-4.017 1.415-4.309 3.636h8.436zm21.289 5.413h4.675c-1.279 4.202-4.638 6.828-8.546 6.828-5.259 0-9.239-4.323-9.239-10.14 0-5.819 3.98-10.1 9.239-10.1 3.908 0 7.267 2.626 8.546 6.828h-4.675c-.84-1.495-2.3-2.142-3.871-2.142-2.775 0-4.638 2.181-4.638 5.413s1.862 5.454 4.638 5.454c1.571 0 3.031-.645 3.871-2.14zm14.938-17.21v3.996h5.259v4.77h-5.259v7.918c0 1.415.584 2.383 2.009 2.383h3.25v4.445h-3.287c-4.345 0-6.573-2.464-6.573-6.02v-8.726h-3.177v-4.77h3.177v-3.996h4.601zM30.863 32.049L15.432.345 0 32.049l15.432 31.71 15.431-31.71z"/></g><defs><clipPath id="clip0"><path fill="#fff" d="M0 .345h203v64H0z"/></clipPath></defs></svg>