<svg width="410" height="640" fill="none" xmlns="http://www.w3.org/2000/svg"><path d="M409.065 41.88l-.609-2.276-28.99-4.026 4.142-10.246 7.389 2.114 1.097-3.863-7.024-2.033 2.07-5.123-1.624-2.724-20.057-2.115-1.827 3.131L376.3 32.691l-.934 2.318-47.992-6.71 2.477-8.863 14.616 1.626.447-3.985-13.967-1.545.934-3.293 14.454 1.992.528-3.985-13.927-1.91 2.031-7.279L331.109 0l-2.152 7.807-7.105-.976-.528 3.985 6.578.894-.934 3.416-7.511-.813-.447 3.984 6.862.773-2.436 8.742-20.87-2.887-1.38.285-35.243 21.306.244.407-47.099 134.587c-4.019 1.992-7.958 4.513-11.815 7.644-7.877 6.383-15.469 15.126-22.494 25.982-11.043 17.037-20.869 39.725-26.269 60.706-7.999 30.984-4.304 58.958-.366 88.6 1.219 9.271 2.518 18.907 3.411 28.666.284 3.294.487 6.75-.771 9.555-1.056 2.359-2.437 3.578-4.182 3.741-3.655.366-8.933-3.781-11.937-7.969-7.918-11.06-14.577-30.577-21.032-49.444-4.751-13.987-9.258-27.202-14.17-36.839-3.776-7.4-9.785-16.955-18.312-14.637-12.87 3.537-11.937 26.836-11.572 35.618l.041.692c.487 12.604 3.938 26.185 10.557 41.433 3.735 8.661 8.12 17.199 12.383 25.413 2.518 4.92 5.157 9.962 7.593 15.004.852 1.748 3.532 7.685 5.643 13.824 3.046 8.864 2.477 11.467 2.274 11.995-.406-.04-1.786-.325-4.953-2.805-17.825-13.866-26.392-32.854-35.487-52.941-5.4-11.994-11.003-24.396-18.758-35.537-1.786-2.562-3.857-5.123-6.902-6.221-5.563-1.993-11.45 2.033-13.724 6.912-8.567 18.338 7.39 43.995 16.932 59.324a95.4 95.4 0 001.34 2.155c10.88 17.566 20.747 31.024 31.06 42.328a176.46 176.46 0 003.005 3.172c6.09 6.261 14.413 14.881 12.749 22.282-.853 3.781-2.599 4.228-3.208 4.391-6.293 1.626-19.936-10.125-24.524-15.329-13.358-14.963-25.985-33.667-35.486-52.656-.934-1.87-1.908-3.985-2.923-6.221-5.522-12.198-12.424-27.365-26.92-27.771-4.384-.122-6.74 1.83-7.957 3.497-4.832 6.627-1.015 20.452 3.857 34.358.406 1.179.771 2.196 1.015 2.928 5.156 16.223 14.21 32.162 26.879 47.329 15.225 18.256 34.024 33.016 52.173 47.329 4.507 3.537 9.054 7.115 13.602 10.775-17.825 16.142-20.301 39.603-20.382 40.661L81 571.69c.527.163 7.024 1.83 16.16 1.83 9.906 0 22.939-1.952 35.039-9.922a45.938 45.938 0 002.842-2.073c.447.528.934 1.057 1.38 1.586 19.977 23.339 30.33 49.809 29.153 74.449l-.082 2.115 4.223.203.081-2.114c1.218-25.739-9.46-53.266-30.167-77.418-.487-.57-.975-1.098-1.462-1.667 6.74-6.71 11.815-16.387 14.861-28.422 2.882-11.467 2.923-20.9 2.923-21.307l-2.314-2.114c-1.178.122-28.868 2.846-49.941 18.704-.203.163-.406.285-.609.447-4.75-3.863-9.541-7.603-14.292-11.344-17.987-14.15-36.623-28.829-51.565-46.719-12.343-14.76-21.113-30.211-26.107-45.906a74.96 74.96 0 00-1.055-3.05c-2.355-6.749-8.608-24.721-4.426-30.495.568-.814 1.665-1.83 4.426-1.789 11.815.325 18.108 14.15 23.183 25.291 1.015 2.277 1.99 4.391 2.964 6.343 9.664 19.273 22.494 38.302 36.096 53.55.162.203 18.108 19.354 28.746 16.589 2.233-.569 5.116-2.358 6.253-7.562 2.152-9.637-7.065-19.192-13.805-26.145a166.45 166.45 0 01-2.923-3.091c-10.15-11.141-19.855-24.355-30.614-41.717-.447-.692-.894-1.424-1.34-2.155-9.095-14.598-24.28-39.035-16.688-55.299 1.502-3.212 5.278-5.855 8.486-4.717 2.03.732 3.573 2.765 4.872 4.636 7.512 10.815 13.034 23.054 18.393 34.846 8.892 19.68 18.109 40.051 36.745 54.567 3.005 2.317 7.308 5.163 10.191 2.805 2.517-2.033 2.314-6.993-.731-16.102-2.192-6.546-5.075-12.97-6.009-14.922-2.477-5.083-5.075-10.165-7.633-15.085-4.223-8.173-8.567-16.59-12.262-25.128-6.415-14.801-9.744-27.853-10.232-39.929l-.04-.692c-.284-7.115-1.178-28.747 8.486-31.39 4.182-1.138 8.567 2.928 13.439 12.483 4.791 9.352 9.217 22.445 13.967 36.27 6.537 19.151 13.277 38.993 21.6 50.582 2.599 3.618 9.258 10.327 15.754 9.677 2.274-.204 5.481-1.464 7.633-6.181 1.705-3.74 1.502-7.806 1.137-11.669-.893-9.84-2.192-19.477-3.411-28.829-3.857-29.194-7.511-56.762.285-86.973 1.989-7.685 9.704-34.765 25.741-59.446 9.298-14.313 23.956-31.471 42.795-35.781 1.462-.326 2.964-.61 4.466-.773.244-.041.488-.041.772-.081 6.252-.57 19.123 1.423 23.468 6.18.406.447.771.935 1.015 1.464 1.137 2.358-.041 5.367-3.492 8.905-.568.569-1.34 1.097-2.233 1.585-1.99 1.098-4.669 1.993-7.105 2.806-2.477.854-4.832 1.626-6.7 2.643a74.084 74.084 0 00-4.588 2.643 73.122 73.122 0 00-4.75 3.09 104.582 104.582 0 00-7.349 5.489c-2.883 2.359-5.644 4.88-8.283 7.482-2.314 2.317-4.588 4.757-6.699 7.278a122.88 122.88 0 00-12.019 17.118c-13.683 23.543-15.225 51.273-15.632 77.662-.203 11.833.691 26.918 9.055 38.587 5.075 7.075 11.409 11.995 18.839 14.638 7.349 2.643 15.388 2.928 23.915.813 16.606-4.106 31.629-15.979 41.13-32.569 9.298-16.224 12.546-35.131 8.851-51.924-1.259-5.692-3.208-11.222-5.36-16.589l24.849-16.508c4.588 16.955 6.862 34.602 6.74 52.493-.244 35.13-10.232 69.855-28.868 100.472-2.071 3.416-4.182 6.831-6.212 10.165-7.146 11.589-14.17 22.974-20.342 34.684-.65-.447-1.34-.935-2.071-1.382-10.922-7.075-23.752-8.702-36.988-4.758-9.948 2.968-16.566 7.97-16.85 8.173l-.812 2.033c.162.895 3.938 22.404 31.467 33.545a70.025 70.025 0 008.688 2.887c-2.882 10.694-4.709 21.957-5.075 34.114-.812 26.877 3.492 53.754 7.593 79.736l.325 2.074 4.182-.651-.325-2.073c-4.101-25.779-8.324-52.453-7.552-78.964.365-11.954 2.111-22.892 4.913-33.301a61.027 61.027 0 0011.937 1.179c13.845 0 22.696-4.798 23.224-5.123l1.096-1.789c.041-.772.244-17.403-20.382-33.26 6.09-11.548 13.155-22.974 20.504-34.928 2.03-3.334 4.141-6.75 6.253-10.165 19.042-31.268 29.233-66.724 29.518-102.628.121-18.582-2.274-36.92-7.106-54.485l-.122-.488 13.074-8.702.772-.935 89.121-207.085-.934-.406zM83.802 568.113c.69-4.107 2.923-14.475 9.338-24.681l24.768 22.566c-14.861 5.124-29.153 3.091-34.106 2.115zm67.765-56.6c-.284 4.839-1.381 16.305-5.766 27.446l-24.361-18.745c12.709-5.733 25.052-7.969 30.127-8.701zm55.341-37.408c-2.802-4.391-4.061-8.173-4.588-10.043 2.192-1.464 7.511-4.676 14.535-6.75 3.898-1.138 7.674-1.789 11.369-1.911l-11.978 29.113c-4.385-3.578-7.349-7.319-9.338-10.409zm64.435 10.125c1.99 4.35 2.599 7.807 2.761 9.555-2.842 1.301-10.8 4.31-21.966 3.944l8.811-27.731c5.481 5.327 8.608 10.41 10.394 14.232zm31.345-455.075l19.57 2.724-2.517 8.986 3.857 1.057 2.639-9.514 47.505 6.627-2.112 5.245 3.695 1.505 2.477-6.18 25.133 3.496-24.443 19.192L274.794 46.11l27.894-16.955zM201.264 249.657c2.801-4.839 5.928-9.393 9.298-13.703l27 6.872 2.355-1.179 11.734-29.032-1.421-2.724-7.268-1.545c.122-.082.244-.122.366-.204 1.543-.813 3.735-1.585 6.049-2.358 4.182-1.423 8.527-2.887 11.044-5.489 4.791-4.961 6.212-9.555 4.263-13.662-.081-.122-.121-.244-.203-.407l6.862-16.955-1.421-2.725-29.639-6.261-2.315 1.301-5.237 15.41a51.307 51.307 0 00-8.324 2.196L269.76 49.525l106.174 16.59-79.052 163.049-2.396 4.961-18.514 38.18-1.34 2.724-2.274-.406-76.738-13.337c1.624-3.985 3.492-7.888 5.644-11.629zm78.443 45.987c7.43 33.708-14.941 71.604-46.895 79.451-15.551 3.822-29.153-1.098-38.329-13.824-7.673-10.653-8.445-24.844-8.282-36.026.324-20.086 1.299-40.986 7.917-59.934l80.189 13.947c2.233 5.327 4.182 10.816 5.4 16.386zm37.516-48.345l-11.409 7.562-3.694 2.481-20.992 13.946 15.47-31.918 2.517-5.205 81.61-168.295 21.885-17.158-85.387 198.587z" fill="#fff"/><path d="M294.446 105.515l2.355-1.18 11.734-29.031-1.421-2.725-29.639-6.261-2.315 1.3-9.622 28.341 1.38 2.603 27.528 6.953zm14.454 3.212l27.529 6.993 2.355-1.179 11.734-29.031-1.421-2.725-29.64-6.261-2.314 1.3-9.623 28.26 1.38 2.643zm-31.791 44.483l11.734-29.032-1.421-2.724-29.639-6.262-2.315 1.301-9.622 28.259 1.38 2.603 27.528 6.993 2.355-1.138zm20.626-28.3l-2.314 1.301-9.582 28.259 1.38 2.602 27.529 6.994 2.355-1.179 11.734-29.032-1.422-2.724-29.68-6.221zm-.568 84.249l2.354-1.179 11.734-29.032-1.421-2.724-29.639-6.262-2.314 1.301-9.623 28.259 1.38 2.603 27.529 7.034zm-18.15 42.49l11.734-29.031-1.421-2.725-29.639-6.261-2.314 1.301-9.623 28.259 1.38 2.602 27.529 6.994 2.354-1.139z" fill="#fff"/></svg>