<svg width="437" height="345" fill="none" xmlns="http://www.w3.org/2000/svg"><path d="M432.874 210.361c-4.613-39.422-14.608-69.308-30.497-91.456-16.401-22.789-65.861-38.31-101.952-49.64-15.889-5.002-29.599-9.278-36.775-12.998-22.124-11.459-12.215-54.813-12.13-55.24L247.206 0c-.128.47-2.733 11.758-2.392 24.756.427 17.7 6.236 29.972 16.786 35.445 3.246 1.667 7.645 3.42 12.899 5.301-8.243 14.238-31.265 22.063-44.121 24.5-28.275 5.344-60.651-.77-81.707-15.264 3.459-3.164 6.235-6.542 8.286-10.133 5.595-9.877 8.755-20.908 11.275-30.486 3.204-12.228 4.741-23.259 4.741-33.606h-4.442c0 9.962-1.537 20.609-4.655 32.495-2.435 9.278-5.51 20.01-10.849 29.416-3.929 6.927-10.891 12.955-20.715 18.043-3.929 2.01-8.243 3.848-13.582 5.73-7.56 2.693-15.462 4.96-23.833 7.31-26.909 7.697-54.714 15.65-72.012 38.652C10.242 149.005 2.725 186.075.589 242.385c-1.58 41.687.513 79.014.556 79.356l4.442-.257c-.043-.684-1.794-32.452-.77-70.206l84.228 5.217c-.811 11.971-1.367 22.404-1.239 26.252-2.178 2.437-4.014 5.131-5.338 8.038-4.656 10.176-3.844 23.473 2.135 34.675 4.741 8.851 11.917 15.222 20.331 17.958 3.161 1.026 6.535 1.539 9.994 1.539 6.621 0 13.668-1.838 20.587-5.473 7.987-4.147 14.095-9.791 17.726-16.247 2.819-5.045 4.228-10.86 4.015-16.846-.129-4.874-1.623-8.637-3.204-12.613-.171-.47-.384-.983-.555-1.454 3.374-2.052 7.176-3.805 10.806-5.558 2.007-.941 4.1-1.924 6.108-2.95l17.17-8.722c1.495 2.394 4.228 6.926 5.296 8.679.513.812.854 1.411.94 1.582.213.342.384.684.555.941 1.11 1.881 2.605 4.489 7.047 2.437.086-.043.299-.128.641-.257.897-.385 2.392-1.026 3.673-1.624 2.349-1.069 4.015-1.839 3.503-3.849l-5.126-14.408.385-.257a85.922 85.922 0 012.648-1.582c.256.641.47 1.368.683 2.052.256.77.47 1.582.769 2.309.897 2.224 1.879 4.49 2.904 6.627.385.77.94 1.967 2.008 2.822 2.178 1.711 6.065 1.283 8.926.129 2.948-1.198 4.784-2.993 5.083-5.131.128-.813.256-1.839-5.125-15.948-2.563-6.756-5.211-13.34-5.254-13.383l-2.904-1.24s-69.663 28.946-75.13 31.212c-.982-.171-3.545-1.282-4.698-1.753-1.239-.513-1.965-.855-2.477-.983-12.728-3.506-23.235-3.335-32.162.556-2.691 1.154-5.211 2.693-7.475 4.446.385-12.656 2.947-46.861 4.87-70.291l-4.443-.385c-.213 2.395-.897 10.946-1.708 21.507-15.633.855-73.037-6.371-84.783-7.868 2.478-35.487 8.116-70.633 20.288-86.795 16.402-21.805 43.48-29.544 69.663-37.027 8.03-2.308 16.359-4.66 24.089-7.396.812-.3 1.623-.599 2.392-.855 2.349 2.437 8.073 7.567 18.879 12.313 11.062 4.875 29.513 10.134 57.532 10.134 5.254 0 10.806-.171 16.743-.599 32.546-2.223 71.286-15.82 83.971-37.626 35.451 11.117 83.587 26.338 99.006 47.802 17.127 23.815 25.498 55.412 29.471 87.821l-.598-1.069c-5.638 3.121-49.717 9.578-79.358 13.34-.983-8.893-1.752-15.478-2.008-18l-4.399.513c5.467 47.844 13.198 121.086 12.002 126.687l4.356.94c1.111-5.13-3.459-50.495-7.261-86.025 13.241-1.668 67.912-8.552 79.529-12.229 1.623 25.74 1.111 50.88.726 71.831-.17 8.594-.341 16.76-.341 23.943h4.442c0-7.183.171-15.264.341-23.858.428-27.321 1.111-61.526-2.818-94.918zm-331.4 67.897c7.945-3.464 17.512-3.549 29.215-.343.256.086 1.196.471 1.922.77 4.271 1.839 6.321 2.565 7.816 1.924 1.495-.599 10.849-4.489 73.379-30.485 4.399 11.074 8.798 22.746 9.225 25.098-.17.299-.854.983-2.349 1.539-2.178.855-4.057.77-4.484.47-.257-.213-.556-.812-.769-1.24a118.858 118.858 0 01-2.776-6.37 26.37 26.37 0 01-.641-1.967c-.513-1.753-1.153-3.72-2.307-5.131l-2.648-.598c-1.751.812-3.374 1.795-4.954 2.779-.641.385-1.282.769-1.88 1.154l-.982 2.651 5.083 14.195c-.812.385-2.093.941-4.058 1.796-.384.171-.64.256-.726.299a5.067 5.067 0 01-.811.299 9.066 9.066 0 01-.556-.94 10.163 10.163 0 00-.64-1.069c-.129-.171-.47-.727-.94-1.539a461.414 461.414 0 00-3.929-6.499c-.769-1.24-1.325-2.181-1.752-2.865-.768-1.197-1.836-2.865-3.673-1.924l-18.921 9.62c-1.922.984-3.972 1.924-5.98 2.865-4.356 2.052-8.884 4.147-12.899 6.798l-.854 2.608c.427 1.112.854 2.181 1.239 3.25 1.495 3.762 2.776 7.055 2.904 11.116.171 5.217-1.068 10.219-3.459 14.537-3.204 5.687-8.671 10.69-15.889 14.452-5.51 2.865-16.359 7.14-27.122 3.634-7.304-2.394-13.582-7.995-17.768-15.819-5.339-10.005-6.108-21.763-2.05-30.742 2.904-6.157 8.371-11.416 15.034-14.323z" fill="#fff"/><path d="M309.651 191.762c-10.507-5.131-21.612-2.437-32.033 7.867-4.4 4.361-7.774 9.15-9.867 12.442-2.477-5.858-7.731-15.606-16.529-18.556-6.193-2.053-12.856-.428-19.861 4.874-11.062 8.38-8.97 28.133 6.236 58.832 11.019 22.191 25.2 42.372 25.328 42.586l3.331.342c2.563-2.395 63.171-58.619 57.832-91.071-1.282-7.782-6.108-13.597-14.437-17.316zm-53.048 71.488l6.322-18.257c-1.623-2.608-5.339-9.62-2.862-14.152 1.367-2.523 4.1-3.763 8.201-3.677 7.56.128 9.524 4.19 10.037 5.9 1.068 3.634-.897 7.996-4.869 11.202l6.407 18.984-2.093 2.95h-19.007l-2.136-2.95zm-140.094 62.125c2.008 0 4.058-.128 6.023-.428 6.065-.855 11.532-4.404 14.607-9.492 3.118-5.088 3.588-11.373 1.409-17.658-1.58-4.575-4.484-7.824-8.585-9.663-8.713-3.891-19.69.171-22.85 1.497-6.364 2.693-14.522 11.971-11.831 23.387 2.05 8.765 11.361 12.357 21.227 12.357zm-7.645-31.64c3.673-1.539 8.329-2.779 12.685-2.779 2.392 0 4.656.385 6.663 1.24 2.947 1.325 4.998 3.634 6.193 7.055 2.221 6.456.684 11.116-1.025 13.896-2.391 3.976-6.705 6.712-11.446 7.396-7.304 1.027-20.203.428-22.296-8.551-2.05-8.551 4.058-16.076 9.226-18.257zM305.185 5.641l-20.919 16.667 2.766 3.479L307.951 9.12l-2.766-3.479zm26.854 20.278l-26.492 13.686 2.037 3.952 26.492-13.687-2.037-3.951zM98.653 10.595l-3.304 2.973 20.355 22.675 3.304-2.973-20.355-22.675zM71.549 43.721l-1.44 4.207L96.29 56.91l1.44-4.206-26.182-8.983zm99.46 205.178l-30.761 13.023 1.73 4.095 30.762-13.023-1.731-4.095z" fill="#fff"/><path d="M115.57 317.379l.256-4.446c-2.178-.129-3.631-.813-4.485-2.053-1.836-2.779-.598-7.952.043-9.705l-2.093-.77-2.093-.77c-.299.856-2.947 8.552.385 13.682 1.153 1.711 3.459 3.806 7.987 4.062zm193.184-139.128l-.299 4.446c8.073.513 13.412 4.233 18.366 12.785l3.844-2.224c-5.723-9.877-12.258-14.366-21.911-15.007z" fill="#fff"/></svg>