<svg width="1065" height="856" fill="none" xmlns="http://www.w3.org/2000/svg"><g clip-path="url(#clip0)" fill="#fff"><path d="M312.738 384.868c-43.741 1.134-83.841 56.59-95.118 73.527-3.712-3.813-9.971-9.287-18.635-13.757-13.278-6.85-34.925-12.401-62.21.234-20.723 9.541-36.977 21.963-51.171 38.889-18.566 22.095-33.069 51.374-44.318 89.495l-.1.393a314.795 314.795 0 00-2.619 16.749c-.244.894-.47 2.043-.451 3.355-3.51 29.609-1.986 56.059 4.446 79.05 7.033 24.851 19.564 45.117 37.385 60.094 15.236 12.804 33.872 21.284 54.005 24.478 18.468 3.01 37.7 1.304 54.134-4.774 2.21-.836 4.496-1.703 6.749-2.645 25.845-10.802 50.782-29.053 74.05-54.256 15.659-17.01 30.462-36.917 46.448-62.858 12.899-20.87 26.337-43.196 37.152-67.152 11.385-25.338 18.788-50.066 21.978-73.473 3.929-28.818 1.116-52.442-8.642-72.196-11.127-22.612-30.902-35.717-53.083-35.153zm-83.415 104.693l69.619-30.858c.807 4.676 1.839 13.479.454 23.468-2.807 19.465-13.308 33.616-31.339 42.208-10.675 5.077-19.251 5.672-25.355 1.627-11.624-7.541-13.243-28.939-13.379-36.445zm-98.37 43.578l66.421-29.433c.744 3.471 1.501 8.871.517 15.174-2.205 14.993-12.305 27.569-29.867 37.284-11.457 6.372-20.416 7.742-26.363 4.072-8.294-5.064-10.433-19.472-10.708-27.097zm-81.472 42.408c.72-2.5 1.472-4.924 2.255-7.274l67.322-29.81c1.733 4.992 4.061 14.572.147 24.211-4.246 10.745-14.815 19.032-31.512 24.692-34.522 11.791-40.406 7.214-40.988 6.666l-.063-.149c.746-6.029 1.642-12.119 2.839-18.336zm81.118 75.41c1.877 6.602 2.477 13.739 2.795 20.202l-68.336 31.816c-4.05-6.31-7.473-13.234-10.283-20.59 12.217-23.135 39.464-37.338 61.627-41.324 7.794-1.411 11.794 1.402 14.197 9.896zm78.971-15.243l-62.646 29.174c-2.115-5.272-5.225-15.669-1.486-25.938 3.419-9.344 11.903-16.496 25.119-21.404 13.667-5.097 23.928-5.252 30.495-.522 6.842 4.968 8.243 14.232 8.518 18.69zm67.691-31.459l-57.856 26.908c-1.833-4.598-5.407-15.68-1.617-26.674 3.137-8.963 10.457-16.155 21.945-21.397 10.618-4.79 19.12-5.353 25.355-1.627 8.582 5.119 11.354 17.24 12.173 22.79zm60.861-28.165l-.093-.224-51.339 23.92c-2.485-5.733-6.446-17.533-2.863-28.176 2.48-7.369 8.203-13.103 17.156-17.021 9.973-4.432 18.475-4.996 25.248-1.67 10.548 5.177 13.864 18.389 13.852 18.571l.331-.051-2.292 4.651zm7.045-14.817c-2.691-5.383-7.41-12.029-15.097-15.851-9.134-4.537-20.039-4.025-32.492 1.444-11.251 4.966-18.551 12.415-21.814 22.134-1.002 2.881-1.535 5.83-1.736 8.728a25.135 25.135 0 00-4.538-3.468c-8.72-5.238-19.945-4.855-33.237 1.14-13.711 6.259-22.639 15.091-26.485 26.372-1.177 3.307-1.735 6.618-1.992 9.803-.551-.473-1.102-.946-1.696-1.313-8.995-6.53-21.892-6.768-38.476-.628-15.652 5.839-25.864 14.768-30.173 26.419-.714 1.881-1.246 3.775-1.522 5.649-5.333-9.38-14.066-10.215-20.971-9-26.445 4.721-50.386 19.653-63.592 39.156-5.832-20.076-7.763-43.278-5.575-69.081 6.285 1.946 18.505 1.412 44.694-7.511a100.569 100.569 0 006.48-2.445c15.476-6.469 25.67-15.654 30.266-27.249.846-2.201 1.51-4.413 1.917-6.606 2.028 3.374 4.669 6.315 8.1 8.399 7.242 4.448 16.552 4.339 27.596-.277 2.404-1.005 4.82-2.191 7.4-3.621 24.924-13.847 32.295-31.263 34.163-43.476 1.284-8.54.033-15.756-.993-19.901l15.727-6.925c.65 10.634 3.677 31.179 17.085 39.821 8.101 5.233 18.38 5.334 30.626.215.977-.408 2.029-.848 3.049-1.362 23.272-11.046 32.114-29.165 35.246-43.841 2.09 5.634 5.17 10.679 9.57 14.028 6.341 4.825 14.273 5.643 23.689 2.411 5.084-1.773 9.504-3.445 13.26-5.015 5.259-2.198 9.191-4.193 12.265-5.918-3.471 21.679-10.373 44.439-20.744 67.769zm21.885-78.975c-1.459 1.578-7.538 6.669-29.62 14.227-6.649 2.252-11.732 1.914-15.751-1.155-10.253-7.851-11.289-31.866-10.843-41.99l50.574-22.37c5.514 14.668 7.371 31.569 5.64 51.288zm621.215-291.397c-2.053-3.012-4.425-6.154-7.011-9.383l-.281-.673-.226.094c-10.584-13.077-25.526-27.499-44.493-35.928-23.288-10.318-47.177-8.776-69.009 4.659-31.274 19.139-36.169 58.737-36.897 73.465-11.174-2.453-37.104-5.159-59.513 14.497-15.152 13.369-22.792 29.929-22.789 49.364-.009 19.615 7.952 41.616 23.587 65.509 20.717 31.62 54.432 55.695 92.55 66.234 24.446 6.756 49.306 6.479 71.907-.681 3.206-.988 6.317-2.201 9.322-3.457 19.534-8.164 36.12-21.693 48.324-39.369 20.852-30.35 29.182-78.418 21.252-122.507-3.5-19.995-13.25-42.478-26.723-61.824zm-37.728-27.764c8.357 6.269 16.113 13.845 23.079 22.278.463 2.796.406 11.527-12.887 23.854-16.442 15.139-41.293-4.199-49.405-11.361l39.213-34.771zm-47.334 41.947c6.391 5.155 17.064 15.909 17.231 26.656.106 6.376-3.558 12.392-11.008 17.793-8.453 6.171-16.598 8.432-24.254 6.795-10.599-2.342-18.091-11.61-21.302-16.336l39.333-34.908zm-48.468 43.035c5.94 5.344 19.511 19.02 19.04 31.617-.208 5.627-3.27 10.337-9.393 14.479-7.156 4.838-14.312 6.51-21.499 4.941-11.856-2.608-20.958-13.402-24.751-18.677l36.603-32.36zm-76.347 99.012c-4.681-7.189-8.543-14.105-11.722-20.867l44.11-39.104c4.531 4.086 13.551 13.42 14.069 24.372.312 7.081-3.007 13.921-10.05 20.295-22.998 20.781-34.228 16.505-36.407 15.304zm85.865 62.697c-7.862-2.342-15.581-5.184-22.961-8.695-.394-4.321.052-15.5 12.248-25.171 12.241-9.777 30.813 3.83 36.579 8.544l-25.866 25.322zm33.605-32.778c-4.32-1.888-17.015-8.191-19.167-18.196-1.389-6.279 1.761-13.312 9.406-20.993 7.839-7.849 15.333-11.246 22.332-10.125 10.68 1.692 18.084 13.284 20.331 17.181L897.86 377.05zm43.784-42.837c-4.25-1.302-15.111-6.172-16.988-13.83-1.377-5.405 1.704-11.969 9.08-19.449 7.57-7.65 14.882-11.058 21.819-10.087 8.526 1.185 14.842 8.483 17.696 12.566l-31.607 30.8zm67.106-65.599l-27.509 26.887c-3.919-2.408-10.961-7.643-12.119-14.635-.825-4.931 1.517-10.307 7.046-15.872 7.018-7.067 13.743-10.405 20.066-10.058 5.956.323 10.076 4.054 11.616 5.612.32 2.678.65 5.356.9 8.066zm-3.08-19.82c-2.51-1.15-5.44-2.036-8.784-2.222-8.896-.591-17.799 3.658-26.696 12.566-7.57 7.649-10.77 15.406-9.419 23.284.081.406.131.737.213 1.143-1.396-.384-2.792-.768-4.276-.94-9.722-1.301-19.458 2.857-29.025 12.484-8.866 8.982-12.78 17.566-11.61 25.432a21.673 21.673 0 00-4.232-1.046c-9.923-1.569-19.915 2.608-29.795 12.541-9.761 9.797-13.644 19.511-11.624 28.78.37 1.516.814 3.001 1.484 4.392-7.707-1.967-16.121-1.616-23.534 4.296-11.927 9.471-14.978 20.332-15.436 27.471-18.629-10.154-34.967-23.905-47.592-40.174.182.012.332-.051.514-.039 3.593-.271 7.45-1.179 11.507-2.875 7.212-3.014 14.982-8.285 23.234-15.779 9.029-8.171 13.268-17.242 12.813-26.99-.094-2.335-.519-4.62-1.095-6.842 2.786 1.386 5.734 2.529 8.933 3.214 6.793 1.471 13.585.83 20.272-1.965 2.629-1.099 5.209-2.529 7.813-4.321 8.384-5.703 12.742-12.801 13.031-21.188.233-5.99-1.726-11.943-4.705-17.381 1.809.738 3.768 1.414 5.709 1.835 6.717 1.501 13.66.798 20.572-2.091 3.531-1.476 7.024-3.464 10.6-6.101 9.723-7.142 14.532-15.485 14.446-24.771-.056-4.989-1.589-9.713-3.917-14.016 12.332 6.278 23.337 7.482 32.653 3.588 3.156-1.319 6.136-3.268 8.822-5.71 8.534-7.876 12.592-14.848 14.402-20.442 11.942 17.17 20.632 36.49 24.722 53.867zM659.464 112.428c-17.678-8.089-37.58-10.94-58.991-8.323-24.459 2.924-51.086 12.91-79.16 29.569-30.322 18.038-53.945 38.377-70.275 60.329-13.156 17.723-21.61 36.559-25.143 55.977-4.975 27.583 1.47 48.282 4.061 55.114l-58.433 77.893 4.432 6.591 84.506-22.481c4.82.975 25.886 4.922 53.625 5.2 23.99.175 56.72-2.6 87.072-15.287 6.161-2.575 12.165-5.524 18.056-8.954 31.793-18.741 60.05-44.886 79.561-73.796 19.349-28.666 27.961-56.626 24.095-78.756-4.754-28.265-26.71-66.226-63.406-83.076zm55.217 84.388c3.378 19.695-4.908 46.112-22.792 72.583-18.816 27.828-46.102 53.128-76.831 71.248-63.316 37.282-152.781 18.127-153.676 17.886l-2.01.048-73.693 19.633 52.528-70.061.482-4.335c-.093-.224-9.907-21.802-4.356-52.441 7.368-41.071 38.945-79.333 91.405-110.494 50.494-30.164 94.349-37.149 130.131-20.797 39.144 17.85 55.584 58.028 58.812 76.73zm-43.099 239.37c-3.649-5.774-12.988-17.349-31.067-22.808-27.733-8.284-63.587 1.162-106.569 28.185-42.217 26.528-81.621 74.569-65.433 129.98 4.481 15.364 12.78 28.253 23.91 37.144 14.203 11.389 33.829 17.169 55.246 16.045 15.482-.755 31.239-4.439 46.641-10.877 8.339-3.485 16.591-7.814 24.636-12.847 19.265-12.186 46.063-32.533 64.096-60.122a136.98 136.98 0 004.784-7.979c10.871-20.022 13.923-41.437 8.604-59.441 20.024-18.395 40.122-36.821 60.145-55.216l6.969-6.342-4.287-7.091-87.675 31.369zm17.005 33.083l-1.115 4.512c5.732 16.248 3.131 36.419-7.151 55.315-1.372 2.42-2.787 4.946-4.415 7.386-17.251 26.294-42.971 45.839-61.547 57.561-21.513 13.565-44.74 21.338-67.14 22.434-19.288.938-36.923-4.091-49.537-14.209-9.815-7.858-17.125-19.225-21.099-32.955-14.824-50.88 22.194-95.55 61.82-120.467 12.703-8.036 24.931-14.465 36.425-19.27 24.643-10.3 45.991-13.067 62.975-8.117 20.52 6.022 27.686 21.055 27.937 21.654l5.246 2.205 71.253-25.473c-17.813 16.504-35.733 32.964-53.652 49.424z"/><path d="M210.956 432.951l7.869-.387c6.858-19.488 14.265-26.893 20.608-31.566l-4.964-6.808c-8.991 6.572-15.603 15.668-21.127 29.057-9.352-7.172-26.204-11.385-30.192-12.268l-1.954 8.204c10.555 2.448 27.313 8.547 29.76 13.768zM46.336 717.308l-8.27 1.961c.306 1.367 8.415 33.859 40.955 44.355l2.637-8.049c-27.939-8.99-35.197-37.968-35.322-38.267zm776.248-512.121c-.118-.918-.193-1.942-.343-2.935-1.045-8.622-2.345-19.335 1.606-24.24l-6.604-5.243c-5.867 7.289-4.861 18.565-3.642 28.873-11.131.607-26.488 2.716-27.227 2.849l1.207 8.378c.182.012 20.516-2.858 30.808-2.939l4.195-4.743zm213.396 91.621c.09.224 7 22.046-1.34 37.141l7.45 4.098c10.1-18.29 2.34-42.752 1.98-43.831l-8.09 2.592zM399.965 307.62L368.3 355.328l7.053 4.649 31.665-47.708-7.053-4.649zm278.967 104.582l2.863 7.938 47.715-17.227-2.863-7.939-47.715 17.228zM528.741 287.637l-30.854-23.776-6.599 4.693 11.89 33.726-34.679-27.015-5.165 6.644 46.065 35.887 6.568-4.768-11.922-33.8 29.815 22.979 6.662-4.543-17.139-58.531-8.082 2.411 13.44 46.093zm28.457-70.64c-3.206-.067-6.142.72-8.809 2.363-8.778 5.603-10.401 19.034-9.939 26.052.537 8.042 3.347 16.454 7.91 23.781 4.406 6.952 12.512 14.733 22.015 15.51 2.392.232 5.397.031 8.552-1.288 2.48-1.036 5.115-2.753 7.72-5.601 8.008-8.712 9.338-22.635 3.461-36.272-6.133-14.674-18.346-24.256-30.91-24.545zm21.246 55.055c-2.843 3.123-5.892 4.485-9.266 4.225-5.221-.456-11.362-5.013-15.537-11.623-3.849-6.042-6.171-13.075-6.658-19.731-.444-6.762 1.548-15.509 6.056-18.449 1.184-.758 2.448-1.111 3.976-1.046 10.524.263 19.337 9.946 23.355 19.348 3.548 8.279 4.905 19.76-1.926 27.276zm57.397-55.034l-19.887-14.642-6.749 3.701 1.962 26.442-26.459-27.196-6.098 5.891 34.558 35.595 7.269-3.302-2.087-28.852 21.828 16.116 6.618-4.437-12.77-53.145-8.239 2.036 10.054 41.793zm8.141-68.25l-7.789 3.326 23.111 54.1 7.788-3.326-23.11-54.1zm23.739 62.277l-6.212 5.75 6.025 6.48 6.213-5.75-6.026-6.48zm-140.04 364.174c-7.688-2.768-14.409-17.371-12.023-26.02.677-2.393 2.023-5.506 4.264-6.267 3.024-1 7.444 1.55 8.833 2.552l5.135-6.719c-.902-.679-8.783-6.443-16.59-3.795-4.633 1.584-7.976 5.62-9.73 11.982-3.67 12.966 5.411 31.948 17.261 36.229 2.279.807 6.342 1.659 11-.288 4.582-1.915 9.717-6.524 14.244-16.595l-7.712-3.46c-3.181 6.958-8.241 14.701-14.682 12.381zm40.957-65.225c-7.112-1.6-14.95.972-19.965 6.498-1.622 1.821-2.893 3.848-3.739 6.048-2.567 6.526-1.41 14.573 3.472 23.085 6.434 11.382 17.026 15.398 27.995 10.813.751-.314 1.577-.659 2.297-1.048 6.361-3.362 10.807-9.618 11.528-16.339.514-4.26-.475-8.948-2.759-13.358-3.968-8.015-11.248-14.031-18.829-15.699zm13.23 28.065c-.488 3.898-3.2 7.757-7.1 9.827-.57.327-1.096.546-1.622.766-9.316 3.894-14.88-2.663-17.378-7.159-2.466-4.422-4.988-10.667-2.99-15.812.526-1.275 1.19-2.432 2.173-3.458a13.016 13.016 0 014.564-3.227c2.329-.974 4.865-1.242 7.2-.723 5.171 1.181 10.266 5.559 13.189 11.285 1.101 2.002 2.34 5.178 1.964 8.501zm27.855-56.67c-7.819-.337-14.117 3.175-17.818 9.734-3.864 6.804-4.122 16.322-.73 24.226 3.58 8.353 11.392 14.586 20.056 15.89 4.332.652 8.483.236 12.014-1.24 4.358-1.821 7.952-5.258 10.212-9.985 4.947-10.334 2.351-23.936-6.099-31.485-4.914-4.366-11.193-6.93-17.635-7.14zm15.959 35.015c-1.747 3.633-5.422 7.719-13.254 6.507-5.772-.929-11.061-5.138-13.546-10.871-2.39-5.509-2.214-12.266.322-16.756 1.208-2.176 2.88-3.666 4.909-4.514 1.502-.628 3.236-.913 5.127-.824 4.476.152 8.871 2.008 12.207 4.923 6.397 5.593 7.141 15.396 4.235 21.535zm2.379-70.787l-7.247 4.38 34.812 57.466 7.247-4.379-34.812-57.467z"/></g><defs><clipPath id="clip0"><path fill="#fff" d="M0 0h1065v856H0z"/></clipPath></defs></svg>